/* XPM */
static char *broken-0[] = {
/* columns rows colors chars-per-pixel */
"32 32 134 2",
"   c black",
".  c #010101",
"X  c #020202",
"o  c gray1",
"O  c #040404",
"+  c gray2",
"@  c #060606",
"#  c gray3",
"$  c #090909",
"%  c gray4",
"&  c #0B0B0B",
"*  c gray6",
"=  c #101010",
"-  c #111111",
";  c gray7",
":  c #131313",
">  c #161616",
",  c gray9",
"<  c #181818",
"1  c gray10",
"2  c #1B1B1B",
"3  c #1D1D1D",
"4  c #222222",
"5  c #252525",
"6  c #272727",
"7  c gray16",
"8  c #2A2A2A",
"9  c gray19",
"0  c #313131",
"q  c #323232",
"w  c gray20",
"e  c #343434",
"r  c #353535",
"t  c gray21",
"y  c #373737",
"u  c gray23",
"i  c #3F3F3F",
"p  c #414141",
"a  c gray26",
"s  c #434343",
"d  c #444444",
"f  c gray28",
"g  c #484848",
"h  c #4C4C4C",
"j  c #535353",
"k  c #555555",
"l  c gray34",
"z  c gray35",
"x  c gray37",
"c  c #606060",
"v  c gray38",
"b  c #626262",
"n  c gray39",
"m  c #646464",
"M  c #656565",
"N  c gray40",
"B  c gray42",
"V  c #6C6C6C",
"C  c #6D6D6D",
"Z  c #6F6F6F",
"A  c #727272",
"S  c gray45",
"D  c #767676",
"F  c gray47",
"G  c gray49",
"H  c red",
"J  c gray51",
"K  c gray53",
"L  c #898989",
"P  c gray56",
"I  c gray57",
"U  c #959595",
"Y  c #979797",
"T  c #989898",
"R  c #9A9A9A",
"E  c #9B9B9B",
"W  c gray62",
"Q  c #A0A0A0",
"!  c gray63",
"~  c #A2A2A2",
"^  c #A4A4A4",
"/  c gray65",
"(  c #A7A7A7",
")  c #A9A9A9",
"_  c #AAAAAA",
"`  c gray68",
"'  c #AEAEAE",
"]  c #B1B1B1",
"[  c gray70",
"{  c gray71",
"}  c #B6B6B6",
"|  c gray72",
" . c #B9B9B9",
".. c #C0C0C0",
"X. c #C1C1C1",
"o. c gray77",
"O. c #C5C5C5",
"+. c #C8C8C8",
"@. c #CDCDCD",
"#. c #D2D2D2",
"$. c LightGray",
"%. c gray83",
"&. c #D5D5D5",
"*. c gray84",
"=. c gray85",
"-. c #DADADA",
";. c gainsboro",
":. c #DDDDDD",
">. c #E2E2E2",
",. c gray89",
"<. c #E6E6E6",
"1. c gray91",
"2. c #E9E9E9",
"3. c #EAEAEA",
"4. c gray92",
"5. c #ECECEC",
"6. c gray93",
"7. c #EEEEEE",
"8. c #EFEFEF",
"9. c gray94",
"0. c gray95",
"q. c #F3F3F3",
"w. c gray96",
"e. c #F6F6F6",
"r. c gray97",
"t. c #F8F8F8",
"y. c #F9F9F9",
"u. c gray98",
"i. c #FBFBFB",
"p. c gray99",
"a. c #FDFDFD",
"s. c #FEFEFE",
"d. c gray100",
"f. c None",
/* pixels */
"f.f.f.f.f.f.f.f.f.f.f.f.f.f.f.f.f.f.f.f.f.f.f.f.f.f.f.f.f.f.f.f.",
"f.f.f.~ M n n n n M n n n n M M n n n n n n n n n n n P f.f.f.f.",
"f.f.8   O         O                   r n M M M n M n i 1 I f.f.",
"U #                               0  .d.d.d.d.d.d.d.d.d.@.u A f.",
"& O & - O # : O O * & 1 k 4     8 ;.y.6.8.8.8.8.8.H H H y.4.0 f.",
"  0 ,.O.& W 4.z J 4.L R d.R   O J d.} 3 : 1 < < H H H H $.d.R j ",
"  # =.6.r ;.d.K ] d.n r W p   O ~ d.` O # & - H H H H H q.d.*.5 ",
"O   ( d.n 6.d._ ;.q.0 B *.Z   #  .d.` O n 4.H H H H H r 6.d.6.4 ",
"  O Z d._ ,.*.$.,.$.: F d.J   #  .d.] O g H H H H H g - 4.d.6.8 ",
"    h y.q.*.~ d.d.` # F y.J   #  .d.` O H H H H H e.g - 4.d.8.7 ",
"    3 8.d. .G d.d.G   F d.J   #  .d.` H H H H H ( e.g - 4.d.8.5 ",
"      O.d.R f q.y.f   F d.J O #  .d.H H H H H d.d.q.g * 4.d.,.5 ",
"      F +.n 1 } } 1   n +.M   8 4.H H H H H d.d.d.e.V p 6.d._ p ",
"O O O       O         O       G H H H H H d.d.d.d.d.d.d.d.e.p f.",
"M                   O     O r H H H H H d.d.d.d.d.d.d.d.q.S i f.",
"f.A O       O             : H H H H H } } ] } } } } } L e d f.f.",
"f.f.f.n e 0 e 0 0 e 0 0 0 H H H H H 0 0 0 0 r 0 0 0 r z ( f.f.f.",
"f.f.f.f.f.f.f.f.f.f.f.f.H H H H H f.f.f.f.f.f.f.f.f.f.f.f.f.f.f.",
"f.f.f.f.f.f.f.f.f.f.f.H H H H H f.f.f.f.f.f.f.f.f.f.f.f.f.f.f.f.",
"f.f.f.f.f.f.f.f.f.f.H H H H H f.f.f.f.f.f.f.f.f.f.f.f.f.f.f.f.f.",
"f.f.f.f.f.f.f.f.f.H H H H H f.f.f.f.f.f.f.f.f.f.f.f.f.f.f.f.f.f.",
"f.f.f.f.f.f.    H H H H H                             f.f.f.f.f.",
"f.f.f.        H H H H H       f.f.          f.            f.f.f.",
"f.f.f.      H H H H H         f.f.          f.            f.f.f.",
"f.f.f.    H H H H H           f.            f.f.          f.f.f.",
"f.f.f.  H H H H H f.          f.f.          f.f.          f.f.f.",
"f.f.f.f.H H H H f.f.f.f.f.f.f.f.f.f.f.f.f.f.f.f.f.f.f.f.f.f.f.f.",
"f.f.f.f.H H H f.f.f.f.f.f.f.f.f.f.f.f.f.f.f.f.f.f.f.f.f.f.f.f.f.",
"f.f.f.f.f.f.f.f.f.f.f.f.f.f.f.f.f.f.f.f.f.f.f.f.f.f.f.f.f.f.f.f.",
"f.f.f.f.f.f.f.f.f.f.f.f.f.f.f.f.f.f.f.f.f.f.f.f.f.f.f.f.f.f.f.f.",
"f.f.f.f.f.f.f.f.f.f.f.f.f.f.f.f.f.f.f.f.f.f.f.f.f.f.f.f.f.f.f.f.",
"f.f.f.f.f.f.f.f.f.f.f.f.f.f.f.f.f.f.f.f.f.f.f.f.f.f.f.f.f.f.f.f."
};
