/* XPM */
static char *mbmenu[] = {
/* columns rows colors chars-per-pixel */
"32 32 55 1",
"  c black",
". c #010202",
"X c #040505",
"o c #080909",
"O c #080A09",
"+ c #090B0A",
"@ c #101313",
"# c #181D1C",
"$ c #1F2524",
"% c #1F2525",
"& c #1F2625",
"* c #1F2626",
"= c #202726",
"- c #212827",
"; c #212928",
": c #222828",
"> c #222928",
", c #222A29",
"< c #232B2A",
"1 c #242B2B",
"2 c #242C2C",
"3 c #262E2D",
"4 c #262E2E",
"5 c #272F2F",
"6 c #27302F",
"7 c #28302F",
"8 c #283030",
"9 c #293231",
"0 c #2A3332",
"q c #2C3534",
"w c #2F3A38",
"e c #303938",
"r c #303A3A",
"t c #323938",
"y c #333E3D",
"u c #353E3D",
"i c #343F3E",
"p c #353F3E",
"a c #34403F",
"s c #35403F",
"d c #3A4341",
"f c #3B4442",
"g c #3D4543",
"h c #3D4644",
"j c #3E4644",
"k c #3E4A48",
"l c #434D4B",
"z c #454D4B",
"x c #454F4D",
"c c #4F5754",
"v c #555C59",
"b c #565E5A",
"n c #585F5C",
"m c #5C6360",
"M c None",
/* pixels */
"MMM::::::::*,:::*,,*:*,MMMMMMMMM",
"MMM8 OOOOOOOOOOOOOOOOO@9MMMMMMMM",
"MMM8 lxxxxxz :xxxxxxxt +6:MMMMMM",
"MMM8 MMMMMMb 6MMMMMMMy  X36MMMMM",
"MMM8 MMMMMMb 3MMMMMMMa   .*qMMMM",
"MMM& MMMMMMn 3MMMMMMMa    .,MMMM",
"MMM8 MMMMMMmtaMMMMMMMy     :MMMM",
"MMM& MMMMMMMMMMMMMMMMy     :MMMM",
"MMM8 MMMMMMMMMMMMMMMMy     ,MMMM",
"MMM8 MMMMMMMMMMMMMMMMy    .*MMMM",
"MMM8 MMMMMMMMMMMMMMMMy     ,MMMM",
"MMM8 MMMMMMMMMMMMMMMMy     :MMMM",
"MMM8 MMMMMMMMMMMMMMMMy     ,MMMM",
"MMM8 MMMMMMMMMMMMMMMMy     *MMMM",
"MMM8 MMMMMMMMMMMMMMMMa     ,MMMM",
"MMM8 MMMMMMMMMMMMMMMMa     :MMMM",
"MMM8 MMMMMMMMMMMMMMMMy     :MMMM",
"MMM8 MMMMMMMMMMMMMMMMy     :MMMM",
"MMM8 MMMMMMMMMMMMMMMMy     :MMMM",
"MMM8 MMMMMMMMMMMMMMMMy     :MMMM",
"MMM8 MMMMjxMMMMkpcMMMy     ,MMMM",
"MMM8 MMM  aMMMMa jMMMy     *MMMM",
"MMM8 MMMt aMMMMa jMMMy     ,MMMM",
"MMM8 MMMw yMMMMa fMMMy     :MMMM",
"MMM8 MMM  aMMMMa fMMMa     ,MMMM",
"MMM9 808# *0080* $008*    .*MMMM",
"MMM9 X                     ,MMMM",
"MMMMw                      ,MMMM",
"MMMMM0                     ,MMMM",
"MMMMMM<        .           *MMMM",
"MMMMMMM:8,*,,*,*:::::,,:,,:,MMMM",
"MMMMMMMMMMMMMMMMMMMMMMMMMMMMMMMM"
};
