/* XPM */
static char *mbterm[] = {
/* columns rows colors chars-per-pixel */
"32 32 136 2",
"   c #000000",
".  c #0E0E0E",
"X  c #181715",
"o  c #1A1917",
"O  c #1D1C1A",
"+  c #0D2422",
"@  c #162D2B",
"#  c #182F2D",
"$  c #19302E",
"%  c #201F1E",
"&  c #21211E",
"*  c #242522",
"=  c #262924",
"-  c #282725",
";  c #292926",
":  c #2A2B28",
">  c #2D312D",
",  c #32302A",
"<  c #343531",
"1  c #363A36",
"2  c #3D3A33",
"3  c #393D39",
"4  c #3E423E",
"5  c #423F37",
"6  c #43413A",
"7  c #45483C",
"8  c #48453E",
"9  c #4B483E",
"0  c #414441",
"q  c #454A45",
"w  c #4A4740",
"e  c #4C4A42",
"r  c #494D49",
"t  c #4C514C",
"y  c #514D44",
"u  c #524E48",
"i  c #545146",
"p  c #54524A",
"a  c #59554C",
"s  c #5E5A4E",
"d  c #515550",
"f  c #545A54",
"g  c #595750",
"h  c #5D5A51",
"j  c #5A5E59",
"k  c #5C625C",
"l  c #605C4F",
"z  c #615D53",
"x  c #615F59",
"c  c #656055",
"v  c #66635A",
"b  c #62685F",
"n  c #686457",
"m  c #6A665B",
"M  c #6D685D",
"N  c #706B5F",
"B  c #616660",
"V  c #646A64",
"C  c #686560",
"Z  c #6C6C64",
"A  c #696D68",
"S  c #6C726C",
"D  c #716C62",
"F  c #716F6A",
"G  c #767266",
"H  c #767269",
"J  c #7A766B",
"K  c #7E7A6E",
"L  c #707570",
"P  c #747A74",
"I  c #7D7A71",
"U  c #797E79",
"Y  c #7D827D",
"T  c #827D73",
"R  c #868276",
"E  c #87847C",
"W  c #888479",
"Q  c #8D887E",
"!  c #818681",
"~  c #858985",
"^  c #8D8A81",
"/  c #898D89",
"(  c #8C918C",
")  c #918D83",
"_  c #949087",
"`  c #959289",
"'  c #98938A",
"]  c #9C988E",
"[  c #919591",
"{  c #959995",
"}  c #9D9A92",
"|  c #999D99",
" . c #9DA19D",
".. c #A19C93",
"X. c #A39F99",
"o. c #A5A097",
"O. c #A6A299",
"+. c #A9A59C",
"@. c #A2A5A2",
"#. c #A5A9A5",
"$. c #ACA7A0",
"%. c #ACA8A1",
"&. c #ABAFAB",
"*. c #ACB1AC",
"=. c #B0ACA4",
"-. c #B4B1AA",
";. c #BBB6AF",
":. c #B1B5B1",
">. c #BBB7B0",
",. c #BDBAB3",
"<. c #B8BBB8",
"1. c #C1BDB6",
"2. c #C5C1BB",
"3. c #C8C6BE",
"4. c #C3C5C3",
"5. c #C6C8C6",
"6. c #C9C6C0",
"7. c #CCC9C3",
"8. c #CDCFCD",
"9. c #CFD0CF",
"0. c #D0CDC6",
"q. c #D5D3CC",
"w. c #D2D4D2",
"e. c #D8D6D1",
"r. c #DDDBD5",
"t. c #DDDDDA",
"y. c #E1DEDA",
"u. c #E3E2DD",
"i. c #E5E3E1",
"p. c #E8E6E2",
"a. c #EAE9E5",
"s. c #EEEEEE",
"d. c gray96",
"f. c #F7F8F7",
"g. c #FCFCFC",
"h. c None",
/* pixels */
"h.h.h.h.h.h.h.h.h.h.h.h.h.h.h.h.h.h.h.h.h.h.h.h.h.h.h.h.h.h.h.h.",
"h.                                                            h.",
"h.                                                              ",
"h.    p.p.p.a.a.a.a.a.a.a.a.a.u.u.u.u.r.q.0.7.2.1.,.-.%.=.      ",
"h.    p.q.3.3.7.6.7.7.7.7.6.6.3.3.1.1.,.;.-.=.+.O...o...}       ",
"h.    p.2.k % ; : : : : : : : = : ; - - - & & % % % Z ..'       ",
"h.    p.3.- k k b A A S S S S A A A V b k k f t q 4 @ +.)       ",
"h.    u.3.- t / ( [ { { { { { [ [ [ / / ~ U S b d : @ o.)       ",
"h.    u.1.- b |  .@.#.#.#.#.#.@.@. .| { ( ! P V j 1 @ ..W       ",
"h.    y.,.- p [ { |  . . . . . .{ [ ( ~ Y L B d q > # ] R       ",
"h.    y.>.- V | @.@.#.&.#.&.#.@.@.| [ / ! P A k t 1 $ ' I       ",
"h.    e.-.* f / [ { | |  . .{ ( / ! U L A k d q 4 > $ ) H       ",
"h.    q.%.- V [ { | | |  . .{ [ / ~ Y P S V k t q 3 # Q Z       ",
"h.    7.+.* d U i.<.~ ! Y Y Y L S A V k k d r 4 1 : # W Z       ",
"h.    6.X.* B Y g.g.f.9.{ ! Y U P L S A V k f r 0 < # T m       ",
"h.    1.] O t A ! :.t.g.g.8.{ B B k k f d t q 4 3 : # T z       ",
"h.    ,.' O k S L L P / w.g.g.S S S A V k k f t q < # J h       ",
"h.    -.^ O r j L  .4.f.g.5.Y j f f d d t r q 0 4 : # G a       ",
"h.    %.W o f k g.g.s.:.P V V V 5.5.5.5.4.4.f t t , # D i       ",
"h.    X.T o 7 q w.~ d t t t t t d.g.f.f.d.u.t q q @ @ N e       ",
"h.    } J o q t t t d d p d t t r q 0 4 4 1 < > : = + M 9       ",
"h.    ` D e - & = - = = ; - : ; = = = * * & & & % * 7 n 9       ",
"h.    / G T W W W W W R T T T H H D D M m n c c l l l i 9       ",
"h.    E Z N D N N Z M m n z z z f a a i i i y 9 9 9 9 9 9       ",
"h.    T M M m m m m v m z z h h a a p i i y y 9 y 9 9 9 9       ",
"h.      < w y u p a a g g p i u y e w 8 6 5 5 2 2 2 2 ,         ",
"h.    o   < w u g x C Z F F Z C v x h g i w 8 6 6 6 6 % .       ",
"h.                                                              ",
"h.h.                                                            ",
"h.h.h.h.                                                    h.h.",
"h.h.h.h.h.                                                h.h.h.",
"h.h.h.h.h.h.h.h.h.h.h.h.h.h.h.h.h.h.h.h.h.h.h.h.h.h.h.h.h.h.h.h."
};
