/* XPM */
static char *miniapm[] = {
/* columns rows colors chars-per-pixel */
"32 32 242 2",
"   c black",
".  c gray2",
"X  c #0B0B07",
"o  c #090908",
"O  c #101010",
"+  c gray7",
"@  c #1B1911",
"#  c #1E1B10",
"$  c #1D1B15",
"%  c #181818",
"&  c #1D1D1D",
"*  c gray12",
"=  c gray14",
"-  c #2B2923",
";  c #2A2A2A",
":  c gray17",
">  c #2E2D29",
",  c #2C2C2C",
"<  c #2D2D2D",
"1  c #2F2F2F",
"2  c #3D3824",
"3  c gray19",
"4  c #313131",
"5  c gray20",
"6  c gray22",
"7  c #393939",
"8  c #3A3A3A",
"9  c gray23",
"0  c #3F3E3D",
"q  c #3E3E3E",
"w  c #423B23",
"e  c #413A24",
"r  c #443D27",
"t  c #46412E",
"y  c #4E4527",
"u  c #4B452C",
"i  c #4E462D",
"p  c #434139",
"a  c #4F4A35",
"s  c #4E4938",
"d  c #4E4B3E",
"f  c #534B2D",
"g  c #594F2C",
"h  c #575038",
"j  c #585133",
"k  c #5B5335",
"l  c #5A5337",
"z  c #5C5232",
"x  c #625835",
"c  c #615A3C",
"v  c #635A3C",
"b  c #6C6037",
"n  c #6E6236",
"m  c #76673C",
"M  c #74683C",
"N  c #796B3D",
"B  c #414141",
"V  c #434343",
"C  c gray27",
"Z  c #464646",
"A  c #4D4B41",
"S  c #494949",
"D  c gray29",
"F  c #4C4C4C",
"G  c gray30",
"H  c gray31",
"J  c #55544E",
"K  c #5B574B",
"L  c #5F5840",
"P  c gray32",
"I  c #555555",
"U  c gray35",
"Y  c #5A5A5A",
"T  c #5B5B5B",
"R  c #5D5D5D",
"E  c #5F5F5F",
"W  c #6B634A",
"Q  c #786B43",
"!  c #7C6F45",
"~  c #626262",
"^  c #686868",
"/  c #6C6C6C",
"(  c #6D6D6D",
")  c #6F6F6F",
"_  c #717171",
"`  c #727272",
"'  c gray45",
"]  c gray46",
"[  c #767676",
"{  c #777777",
"}  c gray47",
"|  c gray48",
" . c #7B7B7B",
".. c #7C7C7C",
"X. c #7E7E7E",
"o. c gray50",
"O. c #847544",
"+. c #857544",
"@. c #80744C",
"#. c #897A47",
"$. c #897B4D",
"%. c #8A7F58",
"&. c #92824D",
"*. c #97854B",
"=. c #99874F",
"-. c #908150",
";. c #998A56",
":. c #988B5B",
">. c #998C5F",
",. c #9A8D5F",
"<. c #9C8E5D",
"1. c #9A8D62",
"2. c #9D8F63",
"3. c #A4935F",
"4. c #A89656",
"5. c #A89759",
"6. c #AA9856",
"7. c #A19569",
"8. c #A6996B",
"9. c #A39A78",
"0. c #B7A76C",
"q. c #BCA863",
"w. c #BEAA64",
"e. c #B9A96F",
"r. c #C4AF69",
"t. c #CBB56C",
"y. c #CDB76D",
"u. c #CFBD7C",
"i. c #D1BB70",
"p. c #D2C07F",
"a. c #D9C377",
"s. c #DAC578",
"d. c #DCC77B",
"f. c #808080",
"g. c gray51",
"h. c #868686",
"j. c gray53",
"k. c #888888",
"l. c #8B8B8B",
"z. c gray55",
"x. c #8D8D8D",
"c. c #929292",
"v. c #939393",
"b. c #949393",
"n. c gray58",
"m. c #9D9D9D",
"M. c #AAA184",
"N. c #A8A18A",
"B. c #BCB084",
"V. c #B8B090",
"C. c #A0A0A0",
"Z. c gray63",
"A. c #A2A2A2",
"S. c gray68",
"D. c gray69",
"F. c #B1B1B1",
"G. c gray70",
"H. c #B4B4B4",
"J. c gray71",
"K. c #B6B6B6",
"L. c #B7B7B7",
"P. c gray72",
"I. c #BBBBBB",
"U. c #BCBCBC",
"Y. c gray74",
"T. c gray",
"R. c gray75",
"E. c #C2B997",
"W. c #C4BA9D",
"Q. c #D0BE81",
"!. c #D3C283",
"~. c #D2C185",
"^. c #D5C281",
"/. c #DBC887",
"(. c #DECC8B",
"). c #D7CB9B",
"_. c #DBCB91",
"`. c #CFC4A1",
"'. c #CFC7A8",
"]. c #C4C3BD",
"[. c #D3CDBA",
"{. c #E7D185",
"}. c #E3D08F",
"|. c #EEDA94",
" X c #EBD99B",
".X c #E4D6A4",
"XX c #E7D8A5",
"oX c #ECDEA6",
"OX c #EEDFA4",
"+X c #EADCA9",
"@X c #E1D6B0",
"#X c #E2D8B6",
"$X c #E6DCB6",
"%X c #E9DFBB",
"&X c #EEE2AD",
"*X c #EEE1B4",
"=X c #EEE4BF",
"-X c #F1E1AB",
";X c #F0E3B2",
":X c #F0E5B1",
">X c #C0C0C0",
",X c #C1C1C1",
"<X c gray76",
"1X c #C5C5C5",
"2X c #C8C8C8",
"3X c gray79",
"4X c #CACACA",
"5X c gray80",
"6X c #CDCDCD",
"7X c #CECECE",
"8X c gray81",
"9X c #D0D0D0",
"0X c gray83",
"qX c #D7D7D7",
"wX c #DADADA",
"eX c #DDDDDD",
"rX c #EEE5C5",
"tX c #EDE6CD",
"yX c #EDE7CE",
"uX c #E5E3DE",
"iX c #F2E8C6",
"pX c #F4ECCD",
"aX c #F8EFCD",
"sX c #F8EFCE",
"dX c #F5EFD5",
"fX c #F4EFDD",
"gX c #F7F2D6",
"hX c #F9F2D9",
"jX c #F0EEE6",
"kX c #F4EFE1",
"lX c #F6F2E3",
"zX c #F7F2E4",
"xX c #FAF6E1",
"cX c #FAF6E8",
"vX c #FBF8E4",
"bX c #FBF8E8",
"nX c #FCF9EC",
"mX c #FCFAEE",
"MX c #FDFBF1",
"NX c #FDFBF3",
"BX c #FDFBF4",
"VX c None",
/* pixels */
"VXVXVXVXVXVXVXVXVXVXVXVXVXVXVXVXVXVXVXVXVXVXVXVXVXVXVXVXVXVXVXVX",
"VXVXVXVXVXVXVXVXVXVXVXVXVXVXVXVXVXVXVXVXVXVXVXVXVXVXVXVXVXVXVXVX",
"VXVXVXVXVXVXVX  = ; 1 5 5 5 1 5 1 ; > 2 w r u d $   VXVXVXVXVXVX",
"VXVXVXVXVXVX  *  .x.k.x.k.x.x.k.k.b.N.p.!.(.=X$Xa   VXVXVXVXVXVX",
"VXVXVXVXVX    G S.D.G.G.I.G.G.I.R.].rXpXsXhXpXOX_.    VXVXVXVXVX",
"VXVXVXVX      n.<X<X<X1X2X7X8XqXqXuXnXBXMXcXiX-X|.X   VXVXVXVXVX",
"VXVXVXVX    O R.1X2X2X7X8XqXqXwXwXjXnXNXcXlX*X X{.%.  VXVXVXVXVX",
"VXVXVXVX    1 R.R.R.R.<X1X2X7X8XqXdXxXvXgXlX+X!.;.k   VXVXVXVXVX",
"VXVXVXVX    7 S.S.S.S.D.G.G.I.I.<XoX&X:X;XzXXXu.~.[.p VXVXVXVXVX",
"VXVXVXVX    q A.A.A.A.A.A.A.A.A.A.a.s.d.}.fX.Xe.%XtXJ VXVXVXVXVX",
"VXVXVXVX    7 m.n.c.c.c.c.n.n.c.c.t.y.i./.tX).:.'.@Xd VXVXVXVXVX",
"VXVXVXVX    5 n.h.h.h.h.h.h.k.h.h.q.w.r.Q.#XB.@.8.E.t VXVXVXVXVX",
"VXVXVXVX    ; k.} { { } } { { } { 5.4.4.0.`.7.i z f # VXVXVXVXVX",
"VXVXVXVX    % f.' ) f.f.' {  . ./ $.*.=.3.W.2.j x c   VXVXVXVXVX",
"VXVXVXVX      E ) ^ h.f.{ f.f.{ E W +.+.#.V.<.Q -.s   VXVXVXVXVX",
"VXVXVXVX      D ' P E I I E E I P K M m N 9.1.&.,.o   VXVXVXVXVX",
"VXVXVXVX      O T ~ G G G C C C B q k b n ! M.1.h   VXVXVXVXVXVX",
"VXVXVXVXVXVX  . * B 7 7 7 6 5 5 > : - e y g c L @   VXVXVXVXVXVX",
"VXVXVXVXVXVXVX                                    VXVXVXVXVXVXVX",
"VXVXVXVXVXVXVXVXVXVXVXVXVXVXVXVXVXVXVXVXVXVXVXVXVXVXVXVXVXVXVXVX",
"VXVXVXVXVXVXVXVXVXVXVXVXVXVXVXVXVXVXVXVXVXVXVXVXVXVXVXVXVXVXVXVX",
"VXVX                                                          VX",
"VXVX                                                          VX",
"VXVX                                                          VX",
"VXVX                                                          VX",
"VXVX                                                          VX",
"VXVX                                                          VX",
"VXVX                                                          VX",
"VXVX                                                          VX",
"VXVX                                                          VX",
"VXVX                                                          VX",
"VXVXVX                                                      VXVX"
};
