/* XPM */
static char *miniapm-power[] = {
/* columns rows colors chars-per-pixel */
"32 32 25 1",
"  c black",
". c #181818",
"X c #2A2A2A",
"o c gray19",
"O c gray20",
"+ c #3A3A3A",
"@ c #3F3F3F",
"# c gray26",
"$ c gray28",
"% c #505050",
"& c #5A5A5A",
"* c gray40",
"= c #717171",
"- c #898989",
"; c gray59",
": c #9A9A9A",
"> c gray61",
", c gray71",
"< c #BCBCBC",
"1 c gray74",
"2 c gray80",
"3 c gray87",
"4 c #E2E2E2",
"5 c #F9F9F9",
"6 c None",
/* pixels */
"66666666666666666666666666666666",
"66666666666666666666666666666666",
"66666666666666666666666666666666",
"66666666666666666666666666666666",
"666666666666    6666666666666666",
"666666666666 -#   66666666666666",
"6666666      4#%*     6666666666",
"666666 322,; 5O+%**** 6666666666",
"6666666      4X+#**** 6666666666",
"666666666666 1O+%****     666666",
"666666666666 1O+%****     666666",
"6666666      :OO&**** 6666666666",
"666666 31,>=.:+$***** 6666666666",
"6666666      &+&*     6666666666",
"666666666666 @X   66666666666666",
"666666666666    6666666666666666",
"66666666666666666666666666666666",
"66666666666666666666666666666666",
"66666666666666666666666666666666",
"66666666666666666666666666666666",
"66666666666666666666666666666666",
"66                             6",
"66                             6",
"66                             6",
"66                             6",
"66                             6",
"66                             6",
"66                             6",
"66                             6",
"66                             6",
"66                             6",
"666                           66"
};
