/* XPM */
static char *minisys[] = {
/* columns rows colors chars-per-pixel */
"32 32 23 1",
"  c black",
". c #0E0E00",
"X c #009200",
"o c #00C100",
"O c #00C800",
"+ c green",
"@ c #2EC100",
"# c #3FFF00",
"$ c #920000",
"% c #C10000",
"& c #C80000",
"* c #C12E00",
"= c red",
"- c #FF3F00",
"; c #929200",
": c #92C100",
"> c #C19200",
", c #C1C100",
"< c #C8C800",
"1 c #C8FF00",
"2 c #FFC800",
"3 c yellow",
"4 c None",
/* pixels */
"44444444444444444444444444444444",
"44444444444444444444444444444444",
"444          44444           444",
"44            4444            44",
"44            4444            44",
"44            4444   .        44",
"44    ;<<;    4444    ;<<;    44",
"44    ,33,    4444    ,33,    44",
"44    ,33,    4444    ,33,    44",
"44    ,33,    4444    ,33,    44",
"44    ,33,    4444    ,33,    44",
"44    ,33,    4444    >22>    44",
"44    ,33,    4444    *--*    44",
"44    ,33,    4444    %==%    44",
"44    ,33,    4444    %==%    44",
"44    :11:    4444    %==%    44",
"44    @##@    4444    %==%    44",
"44    o++o    4444    %==%    44",
"44    o++o    4444    %==%    44",
"44    o++o    4444    %==%    44",
"44    o++o    4444    %==%    44",
"44    o++o    4444    %==%    44",
"44    o++o    4444    %==%    44",
"44    o++o    4444    %==%    44",
"44    o++o    4444    %==%    44",
"44    XOOX    4444    $&&$    44",
"44            4444            44",
"44            4444            44",
"44            4444            44",
"444          444444          444",
"44444444444444444444444444444444",
"44444444444444444444444444444444"
};
