/* XPM */
static char *no-link-0[] = {
/* columns rows colors chars-per-pixel */
"32 32 150 2",
"   c black",
".  c #010101",
"X  c #020202",
"o  c gray1",
"O  c #040404",
"+  c gray2",
"@  c #060606",
"#  c gray3",
"$  c #090909",
"%  c gray4",
"&  c #0B0B0B",
"*  c gray6",
"=  c #101010",
"-  c #111111",
";  c gray7",
":  c #131313",
">  c #161616",
",  c gray9",
"<  c #181818",
"1  c gray10",
"2  c #1B1B1B",
"3  c #1D1D1D",
"4  c #222222",
"5  c #252525",
"6  c #272727",
"7  c gray16",
"8  c #2A2A2A",
"9  c #2C2C2C",
"0  c gray19",
"q  c #313131",
"w  c #323232",
"e  c gray20",
"r  c #343434",
"t  c #353535",
"y  c gray21",
"u  c #373737",
"i  c gray22",
"p  c gray23",
"a  c #3F3F3F",
"s  c gray25",
"d  c #414141",
"f  c gray26",
"g  c #434343",
"h  c #444444",
"j  c gray28",
"k  c #484848",
"l  c #4C4C4C",
"z  c #4E4E4E",
"x  c #535353",
"c  c #555555",
"v  c gray34",
"b  c gray35",
"n  c gray37",
"m  c #606060",
"M  c gray38",
"N  c #626262",
"B  c gray39",
"V  c #646464",
"C  c #656565",
"Z  c gray40",
"A  c #676767",
"S  c gray42",
"D  c #6C6C6C",
"F  c #6D6D6D",
"G  c #6F6F6F",
"H  c #727272",
"J  c gray45",
"K  c #767676",
"L  c #777777",
"P  c gray47",
"I  c gray49",
"U  c gray50",
"Y  c #808080",
"T  c gray51",
"R  c #838383",
"E  c #868686",
"W  c gray53",
"Q  c #898989",
"!  c gray56",
"~  c gray57",
"^  c #959595",
"/  c #979797",
"(  c #989898",
")  c #9A9A9A",
"_  c #9B9B9B",
"`  c gray61",
"'  c gray62",
"]  c #A0A0A0",
"[  c gray63",
"{  c #A2A2A2",
"}  c #A4A4A4",
"|  c gray65",
" . c #A7A7A7",
".. c #A9A9A9",
"X. c #AAAAAA",
"o. c gray68",
"O. c #AEAEAE",
"+. c #AFAFAF",
"@. c gray69",
"#. c #B1B1B1",
"$. c gray70",
"%. c gray71",
"&. c #B6B6B6",
"*. c gray72",
"=. c #B9B9B9",
"-. c gray",
";. c #C0C0C0",
":. c #C1C1C1",
">. c gray77",
",. c #C5C5C5",
"<. c #C6C6C6",
"1. c #C8C8C8",
"2. c #CDCDCD",
"3. c #D2D2D2",
"4. c LightGray",
"5. c gray83",
"6. c #D5D5D5",
"7. c gray84",
"8. c gray85",
"9. c #DADADA",
"0. c gainsboro",
"q. c #DDDDDD",
"w. c #E2E2E2",
"e. c gray89",
"r. c #E4E4E4",
"t. c #E6E6E6",
"y. c #E7E7E7",
"u. c gray91",
"i. c #E9E9E9",
"p. c #EAEAEA",
"a. c gray92",
"s. c #ECECEC",
"d. c gray93",
"f. c #EEEEEE",
"g. c #EFEFEF",
"h. c gray94",
"j. c gray95",
"k. c #F3F3F3",
"l. c gray96",
"z. c #F6F6F6",
"x. c gray97",
"c. c #F8F8F8",
"v. c #F9F9F9",
"b. c gray98",
"n. c #FBFBFB",
"m. c gray99",
"M. c #FDFDFD",
"N. c #FEFEFE",
"B. c gray100",
"V. c None",
/* pixels */
"V.V.V.V.V.V.V.V.V.V.V.V.V.V.V.V.V.V.V.V.V.V.V.V.V.V.V.V.V.V.V.V.",
"V.V.V.{ C B B B C C B B B B C C B B B B B B B B B B B ! V.V.V.V.",
"V.V.8   O                             t B C C C B C B a 1 ~ V.V.",
"^ #                               q -.B.B.B.B.B.B.B.B.B.2.p H V.",
"& O & - O # : O O & & 1 c 4 O   8 0.v.d.g.g.g.g.g.B.2.&.v.a.q V.",
"  q e.,.& ' a.b T a.Q ' B.)     T B.&.3 : 1 1 : d e.8 # 4.B.) x ",
"  # 8.d.t 0.B.W $.B.B t ' d O O { B.o.O # & - - p d.' K k.B.6.5 ",
"O    .B.B d.B.X.0.k.q S 6.G   # &.B.o.O B a.a.a.e.v.B t d.B.d.4 ",
"  O G B. .e.8.6.a.4.: P v.T   # &.B.$.O j $.o.$.1.k.j - a.B.d.8 ",
"    l v.k.4.{ v.v.o.# P B.T   # &.B.o.O         z v.l - a.B.d.8 ",
"    3 g.B.-.I B.B.I   P v.T   # -.B.$.O t W I I  .v.j - a.B.d.5 ",
"      ,.B.) j k.v.j   P B.W   # -.B.o.O C B.B.B.B.k.j & a.B.e.5 ",
"      P 1.B 1 &.&.1   B 1.C   8 e.B.-.p W B.B.B.B.k.G d d.B.X.d ",
"O O O       O         O       I B.B.B.B.B.B.B.B.B.B.B.B.B.v.d V.",
"C                   O     O t e.B.B.B.B.B.B.B.B.B.B.B.B.k.K a V.",
"V.H O       O             : ) &.$.&.&.$.&.$.&.&.&.&.&.Q q d V.V.",
"V.V.V.B t q q t q q q t q q q q q q q q q t q q q t q b X.V.V.V.",
"V.V.V.V.V.V.V.V.V.V.V.V.V.V.V.V.V.V.V.V.V.V.V.V.V.V.V.V.V.V.V.V.",
"V.V.V.V.V.V.V.V.V.V.V.V.V.V.V.V.V.V.V.V.V.V.V.V.V.V.V.V.V.V.V.V.",
"V.V.V.V.V.V.V.V.V.V.V.V.V.V.V.V.V.V.V.V.V.V.V.V.V.V.V.V.V.V.V.V.",
"V.V.V.V.V.V.V.V.V.V.V.V.V.V.V.V.V.V.V.V.V.V.V.V.V.V.V.V.V.V.V.V.",
"V.V.V.V.V.V.                                          V.V.V.V.V.",
"V.V.V.            V.          V.V.          V.            V.V.V.",
"V.V.V.                        V.V.          V.            V.V.V.",
"V.V.V.          V.V.          V.            V.V.          V.V.V.",
"V.V.V.          V.V.          V.V.          V.V.          V.V.V.",
"V.V.V.V.V.V.V.V.V.V.V.V.V.V.V.V.V.V.V.V.V.V.V.V.V.V.V.V.V.V.V.V.",
"V.V.V.V.V.V.V.V.V.V.V.V.V.V.V.V.V.V.V.V.V.V.V.V.V.V.V.V.V.V.V.V.",
"V.V.V.V.V.V.V.V.V.V.V.V.V.V.V.V.V.V.V.V.V.V.V.V.V.V.V.V.V.V.V.V.",
"V.V.V.V.V.V.V.V.V.V.V.V.V.V.V.V.V.V.V.V.V.V.V.V.V.V.V.V.V.V.V.V.",
"V.V.V.V.V.V.V.V.V.V.V.V.V.V.V.V.V.V.V.V.V.V.V.V.V.V.V.V.V.V.V.V.",
"V.V.V.V.V.V.V.V.V.V.V.V.V.V.V.V.V.V.V.V.V.V.V.V.V.V.V.V.V.V.V.V."
};
