/* XPM */
static char *oh[] = {
/* columns rows colors chars-per-pixel */
"16 16 108 2",
"   c #047A2E",
".  c #057A2E",
"X  c #057B2E",
"o  c #067B2E",
"O  c #097D2E",
"+  c #0A7E2E",
"@  c #0C7E2D",
"#  c #067B30",
"$  c #0F802D",
"%  c #11822D",
"&  c #12822D",
"*  c #15842D",
"=  c #17852D",
"-  c #17862D",
";  c #19862D",
":  c #1A872D",
">  c #1B872D",
",  c #1D892C",
"<  c #118139",
"1  c #208A2C",
"2  c #208B2D",
"3  c #228B2C",
"4  c #298F2B",
"5  c #218A38",
"6  c #2A902B",
"7  c #2D922B",
"8  c #2E922B",
"9  c #30942B",
"0  c #32952B",
"q  c #34962B",
"w  c #35972B",
"e  c #37982B",
"r  c #38992B",
"t  c #39992A",
"y  c #39992B",
"u  c #3A9A2A",
"i  c #3B9B2B",
"p  c #3C9B2B",
"a  c #3D9C2B",
"s  c #3E9C2A",
"d  c #218946",
"f  c #288D4A",
"g  c #2D9050",
"h  c #3B975C",
"j  c #419D29",
"k  c #419E2A",
"l  c #449F29",
"z  c #48A229",
"x  c #4BA42A",
"c  c #4EA528",
"v  c #50A72A",
"b  c #51A829",
"n  c #56AB29",
"m  c #58AC29",
"M  c #51A635",
"N  c #5AAB32",
"B  c #5FB029",
"V  c #61B028",
"C  c #62B128",
"Z  c #65B428",
"A  c #66B428",
"S  c #6BB627",
"D  c #68B528",
"F  c #6EB827",
"G  c #6FBA28",
"H  c #73BB27",
"J  c #74BC27",
"K  c #75BD27",
"L  c #77BE26",
"P  c #77BE27",
"I  c #71BB28",
"U  c #73BC28",
"Y  c #409A60",
"T  c #65B042",
"R  c #7AC027",
"E  c #7FC226",
"W  c #69B082",
"Q  c #87C826",
"!  c #8CCB26",
"~  c #8DCB26",
"^  c #90CC25",
"/  c #90CD26",
"(  c #91CD26",
")  c #93CF26",
"_  c #94CF25",
"`  c #95D026",
"'  c #97D125",
"]  c #96D126",
"[  c #99D225",
"{  c #99D325",
"}  c #9BD425",
"|  c #9CD425",
" . c #9DD425",
".. c #9DD525",
"X. c #9ED525",
"o. c #9FD625",
"O. c #96CA7D",
"+. c #85BE99",
"@. c #8FC588",
"#. c #8CC29F",
"$. c #91C5A3",
"%. c #95C7A6",
"&. c #97C8A5",
"*. c #ADD59A",
"=. c #A8D1AF",
"-. c #A7D1B6",
";. c #B4D8AE",
":. c #BDDDB3",
/* pixels */
"o.o.o.o.~ b } o.o.o.o.o.o.o.o.o.",
"o.o.o.o.J X 6 J ' o.o.o.o.o.o.o.",
"o.o.o.o.o.y X + s E ) o.o.} S [ ",
"o.o.o.o.o.o.m X X + 4 y w =   ' ",
"o.o.o.o.o.o.o.$       X       ' ",
"o.o.o.o.o.o.C h $.+.#.<       ' ",
"o.o.o.o.[ H 5 -.#   g &.$     ^ ",
"o.o.o.^ S = Y W     & :.+ # q o.",
"o.o.J 2 X   d %.X + M =.X k o.o.",
"o.C $ q F ;   @.*.O.;.f x o.o.o.",
"o.y Z ! = X & z N T 2 J o.o.o.o.",
"o.o.' ;   s b > 0 7 I o.o.o.o.o.",
"o.o.i X n F > m z > o.o.o.o.o.o.",
"o.[ + Z ~ 7 w ^ k x o.o.o.o.o.o.",
"o.o.' o.y = ^ J 0 ) o.o.o.o.o.o.",
"o.o.o.o.r E o.~ Q o.o.o.o.o.o.o."
};
