/* XPM */
static char *broken-0[] = {
/* columns rows colors chars-per-pixel */
"16 16 53 1",
"  c black",
". c #010101",
"X c #020202",
"o c gray1",
"O c gray2",
"+ c #0E0E0E",
"@ c gray6",
"# c #101010",
"$ c #151515",
"% c #191919",
"& c #1D1D1D",
"* c #222222",
"= c #232323",
"- c #282828",
"; c #323232",
": c gray23",
"> c #3F3F3F",
", c gray28",
"< c gray31",
"1 c #505050",
"2 c gray33",
"3 c #555555",
"4 c #565656",
"5 c gray34",
"6 c gray39",
"7 c #676767",
"8 c gray43",
"9 c #7C7C7C",
"0 c red",
"q c #898989",
"w c #939393",
"e c #9A9A9A",
"r c #9D9D9D",
"t c #A4A4A4",
"y c #AEAEAE",
"u c #B2B2B2",
"i c #B4B4B4",
"p c gray75",
"a c gray81",
"s c #D2D2D2",
"d c #D7D7D7",
"f c #DADADA",
"g c #E1E1E1",
"h c gray90",
"j c gray91",
"k c #ECECEC",
"l c #F1F1F1",
"z c gray95",
"x c #F4F4F4",
"c c #F6F6F6",
"v c #F9F9F9",
"b c gray100",
"n c None",
/* pixels */
"nnnnnnnnnnnnnnnn",
"nn           00n",
"n       O6yu000n",
" 1;8>4w#7b 000j ",
"-pevi9p+r 000bl ",
"=:hak,d$t000 bk ",
"=#xql&d$000g bk ",
"1 4&4O4000bbdbx ",
"n% o  000dfffs n",
"nn   000      nn",
"nnnn000nnnnnnnnn",
"   000          ",
" n000nn  nn  nn ",
" 000 nn  nn  nn ",
" 00             ",
"nnnnnnnnnnnnnnnn"
};
