/* XPM */
static char *mbmenu[] = {
/* columns rows colors chars-per-pixel */
"16 16 46 1",
"  c black",
". c #314E6C",
"X c #494949",
"o c #4C4C4C",
"O c gray30",
"+ c gray31",
"@ c #505050",
"# c #435E7A",
"$ c #47617C",
"% c #496582",
"& c #5A718A",
"* c #6A7D94",
"= c #6B7F95",
"- c #778697",
"; c #778797",
": c #7E8C9A",
"> c #7F8D9B",
", c #738FAE",
"< c #7590AF",
"1 c #7792B1",
"2 c #7893B0",
"3 c #7994B2",
"4 c #86A1BD",
"5 c #91A4BA",
"6 c #92A5BB",
"7 c #97AABF",
"8 c gray74",
"9 c #88A3C0",
"0 c #8AA5C1",
"q c #8CA7C3",
"w c #8DA8C5",
"e c #8FAAC6",
"r c #91ACC8",
"t c #93AECA",
"y c #9BAEC2",
"u c #95B0CB",
"i c #A5B6CA",
"p c #A8B9CD",
"a c #A9BBCE",
"s c #AABCCF",
"d c #ACBDD0",
"f c #ADBED1",
"g c #AEC0D3",
"h c #DADADA",
"j c gray100",
"k c None",
/* pixels */
"kkkkkkkkkkkkkkkk",
"kk............kk",
"k.&7iiaasddfy$.k",
"k.5,<1*@XXX+;3.k",
"k.i<13+hjjjh+4.k",
"k.i*@XXjjjjjX4.k",
"k.iXjjXjjjjjXe.k",
"k.iXjjXjjjjjXe.k",
"k.iXjjXjjjjjXe.k",
"k.iXjjXjjjjjXe.k",
"k.iXjj8+XXX+4e.k",
"k.i+hjjjh+ee5u.k",
"k.5;@XXXo:ttr4.k",
"k.#240ewertu4$.k",
"k.............kk",
"kkkkkkkkkkkkkkkk"
};
