/* XPM */
static char *mbterm[] = {
/* columns rows colors chars-per-pixel */
"16 16 173 2",
"   c black",
".  c #020202",
"X  c #040404",
"o  c #0D0D0C",
"O  c #0E0D0C",
"+  c #111010",
"@  c #1D1C1A",
"#  c #1F1E1C",
"$  c #21201C",
"%  c #21201E",
"&  c #25241F",
"*  c #222120",
"=  c #242321",
"-  c #252422",
";  c #252523",
":  c #262520",
">  c #262523",
",  c #272725",
"<  c #292723",
"1  c #282726",
"2  c #292826",
"3  c #292927",
"4  c #2D2C27",
"5  c #32302C",
"6  c #373531",
"7  c #313834",
"8  c #353B38",
"9  c #343C38",
"0  c #363D39",
"q  c #3B3934",
"w  c #3D3C37",
"e  c #393F3B",
"r  c #3D4541",
"t  c #403D37",
"y  c #43413A",
"u  c #43403C",
"i  c #46443D",
"p  c #464545",
"a  c #454843",
"s  c #494742",
"d  c #4B4942",
"f  c #4D4B46",
"g  c #4E4C45",
"h  c #484D48",
"j  c #4B4E49",
"k  c #4F524C",
"l  c #4F554F",
"z  c #53504A",
"x  c #50524E",
"c  c #55524C",
"v  c #575449",
"b  c #56544D",
"n  c #56544E",
"m  c #58554F",
"M  c #505550",
"N  c #545A54",
"B  c #565954",
"V  c #575C57",
"C  c #585650",
"Z  c #5B5951",
"A  c #5B5D58",
"S  c #5B605B",
"D  c #5F615C",
"F  c #5E615E",
"G  c #5F625D",
"H  c #5F635E",
"J  c #5F655F",
"K  c #605F59",
"L  c #636057",
"P  c #61635E",
"I  c #64675E",
"U  c #67645C",
"Y  c #6A685E",
"T  c #606660",
"R  c #646964",
"E  c #656864",
"W  c #656A65",
"Q  c #676C67",
"!  c #6A6862",
"~  c #6B6A64",
"^  c #6E6B62",
"/  c #686C68",
"(  c #686E69",
")  c #6C6A68",
"_  c #6F6E6C",
"`  c #6C716C",
"'  c #6C726D",
"]  c #6E736E",
"[  c #6F746F",
"{  c #6F756F",
"}  c #706D62",
"|  c #716E66",
" . c #706F69",
".. c #716F6A",
"X. c #70736F",
"o. c #76736A",
"O. c #77746B",
"+. c #7B776E",
"@. c #717470",
"#. c #707671",
"$. c #747371",
"%. c #777670",
"&. c #737873",
"*. c #747975",
"=. c #757975",
"-. c #777D78",
";. c #787671",
":. c #787775",
">. c #797876",
",. c #7B7977",
"<. c #7C7B76",
"1. c #7F7C73",
"2. c #7D7D77",
"3. c #7A7F7A",
"4. c #7C7F7B",
"5. c #7E7D7B",
"6. c #7E7E7B",
"7. c #7C817C",
"8. c #7E837E",
"9. c #7F847F",
"0. c #817D75",
"q. c #807F7E",
"w. c #80807A",
"e. c #81807B",
"r. c #81817E",
"t. c #80827F",
"y. c #83827D",
"u. c #84847F",
"i. c #85857F",
"p. c #828682",
"a. c #838682",
"s. c #848382",
"d. c #858483",
"f. c #848783",
"g. c #868680",
"h. c #868684",
"j. c #868885",
"k. c #878A86",
"l. c #868C86",
"z. c #888786",
"x. c #888887",
"c. c #898987",
"v. c #888B86",
"b. c #8B8A8A",
"n. c #8B8B8A",
"m. c #8A8D89",
"M. c #8B8E8A",
"N. c #8E938E",
"B. c #929088",
"V. c #929692",
"C. c #949794",
"Z. c #959895",
"A. c #999D99",
"S. c #9A9E9A",
"D. c #9B9E9B",
"F. c #9EA29E",
"G. c #9FA49F",
"H. c #A2A5A2",
"J. c #A2A6A2",
"K. c #A3A6A3",
"L. c #A4A8A4",
"P. c #ABAAA2",
"I. c #AAADAA",
"U. c #B0B3B0",
"Y. c #B1B2B1",
"T. c #B8BAB8",
"R. c #BDBFBD",
"E. c #C6C8C6",
"W. c #CCCDCC",
"Q. c #CCCECC",
"!. c #CDCFCD",
"~. c #D6D7D6",
"^. c None",
/* pixels */
"                                ",
"  p n.x.x.m.x.x.h.d.y.5.,.:.*   ",
"  n.P.y.g.g.i.s.w.5.%...~ B.f   ",
"  z.w.H h.m.m.m.v.g.7.] e 7.s   ",
"  h.<.h.G.K.L.K.D.V.7.Q r -.u   ",
"  s.%.p.A.G.G.A.N.p.' V 0 =.w   ",
"  q...y.T.H.N.l.7.[ J l 0 #.6   ",
"  5.! =.E.~.U.9.Q J N h 7 ' 5   ",
"  ,.K X.V.I.!.Z.&.[ E M 0 Q 4   ",
"  $.C E R.Z.' A Q.Q.Y.H 8 E 2   ",
"  _ Z k H P P H A B k j a U :   ",
"  ~ } o.0.1.+.O.| ^ Y U L v $   ",
"  3 q n n m n c g d i u w : o   ",
"  X + - ; 2 2 ; ; ; $ $ # o     ",
"^.^.^.^.^.^.^.^.^.^.^.^.^.^.^.^.",
"^.^.^.^.                    ^.^."
};
