/* XPM */
static char *miniapm-power[] = {
/* columns rows colors chars-per-pixel */
"16 16 21 1",
"  c black",
". c #181818",
"X c gray19",
"o c gray20",
"O c #3A3A3A",
"+ c #3F3F3F",
"@ c gray26",
"# c gray28",
"$ c #505050",
"% c #5A5A5A",
"& c gray40",
"* c #717171",
"= c gray59",
"- c #9A9A9A",
"; c gray61",
": c gray71",
"> c #BCBCBC",
", c gray80",
"< c #E2E2E2",
"1 c #F9F9F9",
"2 c None",
/* pixels */
"2222      222222",
"2    <@$&     22",
" ,:= 1oO$&&&& 22",
"     <XO+&&&& 22",
"2222 >oO$&&&&   ",
"2    -oo%&&&&   ",
" :;*.-O#&&&&& 22",
"     %O%&     22",
"2222      222222",
"2222222222222222",
"2              2",
"2              2",
"2              2",
"2              2",
"2              2",
"2              2"
};
