/* XPM */
static char *miniapm[] = {
/* columns rows colors chars-per-pixel */
"16 16 45 1",
"  c black",
". c #202020",
"X c gray21",
"o c #484848",
"O c #505050",
"+ c #656565",
"@ c gray46",
"# c gray47",
"$ c #70861F",
"% c #7F8319",
"& c #7C831E",
"* c #818418",
"= c #85993D",
"- c #84A523",
"; c #8EAD23",
": c #8ABA2B",
"> c #8FBF2A",
", c #8EBF2D",
"< c #95AC22",
"1 c #9FA827",
"2 c #96BC2F",
"3 c #9ABA26",
"4 c #98BB2A",
"5 c #A0C32E",
"6 c #A4C32C",
"7 c #A9C12C",
"8 c #A6C131",
"9 c #C1D471",
"0 c #868686",
"q c #8E8E8E",
"w c #A0A0A0",
"e c #A2A2A2",
"r c gray67",
"t c gray68",
"y c gray74",
"u c #CCDE8F",
"i c #D1DE8D",
"p c #DADC8C",
"a c #D2DCBB",
"s c #DFE3A9",
"d c #D5D5D5",
"f c #EFF4DB",
"g c #F4F8E8",
"h c #F9FAF2",
"j c None",
/* pixels */
"j             jj",
"j        32>4 jj",
"j.+etyydyffgh  j",
"j +######ipusa j",
"j        ,5889 j",
"j  O0OO0 :678= j",
"j  rqret -;<1  j",
"j  Xo@Xo $**& jj",
"j             jj",
"jjjjjjjjjjjjjjjj",
"j              j",
"j              j",
"j              j",
"j              j",
"j              j",
"j              j"
};
