/* XPM */
static char *minitime[] = {
/* columns rows colors chars-per-pixel */
"16 16 69 1",
"  c black",
". c gray9",
"X c #2F2F2F",
"o c gray19",
"O c #313131",
"+ c #343434",
"@ c #393939",
"# c gray24",
"$ c #3F3F3F",
"% c gray37",
"& c #7C7C7C",
"* c #8D8D8D",
"= c #909090",
"- c gray59",
"; c #9A9A9A",
": c #9D9D9D",
"> c #A0A0A0",
", c gray65",
"< c #AFAFAF",
"1 c gray69",
"2 c #B2B2B2",
"3 c #B4B4B4",
"4 c gray71",
"5 c #B6B6B6",
"6 c #B9B9B9",
"7 c #BBBBBB",
"8 c #BCBCBC",
"9 c gray74",
"0 c gray",
"q c #C0C0C0",
"w c #C8C8C8",
"e c gray79",
"r c #CDCDCD",
"t c #D0D0D0",
"y c gray86",
"u c #DDDDDD",
"i c #F1DAD0",
"p c #F4E2DA",
"a c #E1E1E1",
"s c #E2E2E2",
"d c gray89",
"f c #E4E4E4",
"g c gray90",
"h c #E6E6E6",
"j c #E7E7E7",
"k c gray91",
"l c #E9E9E9",
"z c #EAEAEA",
"x c gray92",
"c c #ECECEC",
"v c gray93",
"b c #EEEEEE",
"n c #EFEFEF",
"m c #F7EBE7",
"M c gray94",
"N c #F1F1F1",
"B c gray95",
"V c #F3F3F3",
"C c #F4F4F4",
"Z c gray96",
"A c #F6F6F6",
"S c gray97",
"D c #F8F8F8",
"F c #F9F9F9",
"G c gray98",
"H c #FBFBFB",
"J c gray99",
"K c gray100",
"L c None",
/* pixels */
"LLLL        LLLL",
"LLL #rZGGBe+ LLL",
"LL ,ZGGG0GZB: LL",
"L >ZGGGJ4GZBc- L",
" +BZGGJJ;GZBcjO ",
" 7BZGJJJ&ZZBBj2 ",
" jBZGGJJ%ZZBcju ",
" c9ZGGJJ#rBBj4d ",
" j9BZZZGe.9cj4j ",
" jcBBZZBB9 7jjy ",
" 7ccBBBBBc7 jd2 ",
" OjcjcBcjcjjddX ",
"L *jjjjjjjjdd* L",
"LL *jjj74jdd* LL",
"LLL O2uddy<X LLL",
"LLLL        LLLL"
};
