/* XPM */
static char *signal-81-100[] = {
/* columns rows colors chars-per-pixel */
"16 16 58 1",
"  c black",
". c #010101",
"X c #020202",
"o c gray1",
"O c gray2",
"+ c #0E0E0E",
"@ c gray6",
"# c #101010",
"$ c #111111",
"% c #151515",
"& c #191919",
"* c #1D1D1D",
"= c #222222",
"- c #232323",
"; c #282828",
": c #323232",
"> c gray23",
", c #3F3F3F",
"< c #007F00",
"1 c gray28",
"2 c gray31",
"3 c #505050",
"4 c gray33",
"5 c #555555",
"6 c #565656",
"7 c gray34",
"8 c gray39",
"9 c #646464",
"0 c #676767",
"q c gray43",
"w c gray46",
"e c #7C7C7C",
"r c #898989",
"t c #939393",
"y c #9A9A9A",
"u c #9D9D9D",
"i c #A4A4A4",
"p c gray65",
"a c #AAAAAA",
"s c #AEAEAE",
"d c #B2B2B2",
"f c #B4B4B4",
"g c gray75",
"h c gray81",
"j c #D2D2D2",
"k c #D7D7D7",
"l c #DADADA",
"z c #E1E1E1",
"x c gray90",
"c c gray91",
"v c #ECECEC",
"b c #F1F1F1",
"n c gray95",
"m c #F4F4F4",
"M c #F6F6F6",
"N c #F9F9F9",
"B c gray100",
"V c None",
/* pixels */
"VVVVVVVVVVVVVVVV",
"VV            VV",
"V       O8sdda V",
" 3:q,6t#0B BwBc ",
";gyNfeg@u BB Bb ",
"->xhv1k%i  B Bv ",
"-#mrb*k%i Bz Bv ",
"3 6*6O6#lkBBkBm ",
"V&     0lllllk V",
"VV            VV",
"VVVVVVVVVVVVVVVV",
"                ",
" <<  <<  <<  << ",
" <<  <<  <<  << ",
"                ",
"VVVVVVVVVVVVVVVV"
};
